<svg width="247" height="45" viewBox="0 0 247 45" fill="none" xmlns="http://www.w3.org/2000/svg">
<g clip-path="url(#clip0_727_912)">
<path d="M71.3468 32.9119L62.9679 21.4095L71.116 12.5119H68.2445L58.4576 23.3089V12.5119H56.1401V32.9073H58.4576V26.324L61.4168 23.1061L68.5354 32.9073H71.3514L71.3468 32.9119ZM97.4761 25.7707H90.1497L93.8152 17.1681L97.4761 25.7707ZM100.583 32.9119H103.131L93.8429 11.7834L84.5823 32.9119H87.0151L89.2126 27.9099H98.4132L100.578 32.9119H100.583ZM120.586 17.1405C120.586 15.4716 122.082 14.2729 123.868 14.2729C125.655 14.2729 126.68 14.9783 127.442 16.4075L129.404 15.384C128.259 13.2725 126.504 12.1338 123.896 12.1338C120.642 12.1338 118.269 14.2683 118.269 17.1958C118.269 20.5336 120.522 21.7368 123.633 23.1107C126.504 24.337 128.203 25.1853 128.203 27.6148C128.203 28.6706 127.82 31.1831 124.127 31.1831C121.519 31.1831 119.912 29.694 118.998 27.495L117.004 28.4308C118.236 31.7963 120.932 33.3176 124.095 33.3176C128.286 33.3176 130.512 30.8327 130.512 27.5825C130.512 24.1618 128.517 22.8156 124.769 21.1467C122.28 20.0311 120.577 19.3303 120.577 17.1359M152.098 14.6464H157.666V12.5119H144.213V14.6464H149.781V32.9073H152.098V14.651V14.6464ZM178.781 32.9073H185.143V30.7682H178.985C177.664 30.7682 175.675 30.0398 175.675 27.3152V23.2167H184.377V21.0822H175.675V14.6418H184.935V12.5072H173.362V27.1953C173.362 30.8558 175.121 32.9027 178.786 32.9027M201.748 32.9027H212.473V30.7636H204.061V12.5165H201.744V32.9119L201.748 32.9027ZM245.046 22.7188C245.046 27.5503 241.529 31.1739 236.723 31.1739C231.917 31.1739 228.399 27.5503 228.399 22.7188C228.399 17.8873 231.949 14.2637 236.723 14.2637C241.496 14.2637 245.046 17.8919 245.046 22.7188ZM247.392 22.7188C247.392 16.6011 242.614 12.1246 236.723 12.1246C230.832 12.1246 226.087 16.6011 226.087 22.7188C226.087 28.8365 230.837 33.313 236.723 33.313C242.609 33.313 247.392 28.8365 247.392 22.7188Z" fill="#494951"/>
<path d="M2.10511 12.8532L19.2876 2.94595L36.4702 12.8486V23.0556L31.4751 20.2019V27.8087L25.3814 24.2911V16.6474L19.2969 13.1575L13.2124 16.6474V24.2911L7.11861 27.8087V20.2019L2.10511 23.0694V12.8532ZM19.2876 0.520996L0 11.6408V33.8803L19.2876 45L38.5753 33.8803V11.6408L19.2876 0.520996Z" fill="#D0B982"/>
</g>
<defs>
<clipPath id="clip0_727_912">
<rect width="247" height="45" fill="white"/>
</clipPath>
</defs>
</svg>
