<svg width="48" height="48" viewBox="0 0 48 48" fill="none" xmlns="http://www.w3.org/2000/svg">
<path d="M12 16H20" stroke="#C4AB6C" stroke-width="3" stroke-linecap="round" stroke-linejoin="round"/>
<path d="M41.666 18H36.462C32.892 18 30 20.686 30 24C30 27.314 32.894 30 36.46 30H41.666C41.834 30 41.916 30 41.986 29.996C43.066 29.93 43.926 29.132 43.996 28.13C44 28.066 44 27.988 44 27.834V20.166C44 20.012 44 19.934 43.996 19.87C43.924 18.868 43.066 18.07 41.986 18.004C41.918 18 41.834 18 41.666 18Z" stroke="#C4AB6C" stroke-width="3"/>
<path d="M41.93 18C41.774 14.256 41.274 11.96 39.656 10.344C37.314 8 33.542 8 26 8H20C12.458 8 8.686 8 6.344 10.344C4 12.686 4 16.458 4 24C4 31.542 4 35.314 6.344 37.656C8.686 40 12.458 40 20 40H26C33.542 40 37.314 40 39.656 37.656C41.274 36.04 41.776 33.744 41.93 30" stroke="#C4AB6C" stroke-width="3"/>
<path d="M35.982 24H36.002" stroke="#C4AB6C" stroke-width="4" stroke-linecap="round" stroke-linejoin="round"/>
</svg>
